<svg width="144" height="32" viewBox="0 0 144 32" fill="none" xmlns="http://www.w3.org/2000/svg">
<path d="M0 23.6143V0.432495H6.09861V4.62772H6.22837C7.20155 1.83812 9.68858 0 12.846 0C16.1981 0 18.5337 1.72999 19.3123 4.75747H19.442C20.4801 1.83812 23.2483 0 26.6435 0C31.1852 0 34.2344 3.11398 34.2344 7.78495V20.988H27.9195V9.3636C27.9195 6.68209 26.5787 5.21159 24.135 5.21159C21.7344 5.21159 20.1557 6.96321 20.1557 9.53658V23.6143H14.0787V9.16899C14.0787 6.68209 12.673 5.21159 10.3374 5.21159C7.93684 5.21159 6.31488 7.02808 6.31488 9.62307V23.6143H0Z" fill="#0A84FF"/>
<path d="M38.9415 24.4098H44.7374C44.0454 28.9509 39.8931 32 34.1621 32C27.0254 32 22.7434 27.4372 22.7434 20.0199C22.7434 12.6242 27.0687 7.82349 33.9242 7.82349C40.6716 7.82349 44.932 12.3863 44.932 19.436V21.3607H28.9502V21.7499C28.9502 25.0584 31.0479 27.3291 34.2702 27.3291C36.5842 27.3291 38.3575 26.183 38.9415 24.4098Z" fill="black"/>
<circle cx="28.0336" cy="15.2227" r="4.08101" fill="white"/>
<circle cx="40.7307" cy="15.2227" r="4.08101" fill="white"/>
<path d="M29.3669 13.5599C28.934 13.5599 28.5527 13.7715 28.3363 14.1041C28.1199 13.7715 27.7386 13.5599 27.3058 13.5599C26.6256 13.5599 26.0691 14.1041 26.0691 14.7691C26.0691 15.9682 28.3363 17.1875 28.3363 17.1875C28.3363 17.1875 30.6035 15.9783 30.6035 14.7691C30.6035 14.1041 30.047 13.5599 29.3669 13.5599Z" fill="#F44336"/>
<path d="M42.0629 13.5599C41.6301 13.5599 41.2488 13.7715 41.0324 14.1041C40.8159 13.7715 40.4346 13.5599 40.0018 13.5599C39.3216 13.5599 38.7651 14.1041 38.7651 14.7691C38.7651 15.9682 41.0324 17.1875 41.0324 17.1875C41.0324 17.1875 43.2996 15.9783 43.2996 14.7691C43.2996 14.1041 42.7431 13.5599 42.0629 13.5599Z" fill="#F44336"/>
<path d="M47.4484 14.1044H46.6542C46.1148 11.5343 43.8401 9.63 41.1148 9.63C38.5128 9.63 36.3215 11.3661 35.6642 13.7285L35.6552 13.7679C35.385 13.7151 35.074 13.6847 34.7558 13.6847C34.4376 13.6847 34.1275 13.7151 33.8265 13.7724L33.8574 13.7679C33.191 11.3661 30.9997 9.63 28.3977 9.63C25.6724 9.63 23.3977 11.5343 22.8646 14.0677L22.8583 14.1035H22.0632C21.4376 14.1035 20.9299 14.6046 20.9299 15.222C20.9299 15.8395 21.4376 16.3406 22.0632 16.3406H22.8574C23.3968 18.9107 25.6724 20.815 28.3977 20.815C31.24 20.815 33.5917 18.7443 33.9906 16.048L33.9943 16.0176C34.2218 15.9451 34.4838 15.9039 34.7558 15.9039C35.0278 15.9039 35.2898 15.9451 35.5355 16.023L35.5174 16.0176C35.919 18.7443 38.2717 20.815 41.1139 20.815C43.8392 20.815 46.1139 18.9107 46.6479 16.3764L46.6542 16.3406H47.4484C48.074 16.3406 48.5817 15.8395 48.5817 15.222C48.5817 14.6046 48.074 14.1035 47.4484 14.1035V14.1044ZM28.4095 18.5787C26.5319 18.5787 25.0097 17.0762 25.0097 15.2229C25.0097 13.3697 26.5319 11.8672 28.4095 11.8672C30.2871 11.8672 31.8093 13.3697 31.8093 15.2229C31.8075 17.0753 30.2862 18.5769 28.4095 18.5787ZM41.1021 18.5787C39.2245 18.5787 37.7023 17.0762 37.7023 15.2229C37.7023 13.3697 39.2245 11.8672 41.1021 11.8672C42.9797 11.8672 44.5019 13.3697 44.5019 15.2229C44.5001 17.0753 42.9788 18.5769 41.1021 18.5787Z" fill="#0A84FF"/>
<path d="M51.6047 26.0721V9.41013H55.9881V12.4254H56.0813C56.7808 10.4204 58.5684 9.09927 60.8378 9.09927C63.247 9.09927 64.9258 10.3427 65.4853 12.5187H65.5787C66.3247 10.4204 68.3143 9.09927 70.7548 9.09927C74.019 9.09927 76.2106 11.3374 76.2106 14.6947V26.0721H71.6719V15.8294C71.6719 13.902 70.7082 12.8451 68.9517 12.8451C67.2263 12.8451 66.0916 14.1041 66.0916 15.9537V26.0721H61.7238V15.6895C61.7238 13.902 60.7134 12.8451 59.0347 12.8451C57.3093 12.8451 56.1435 14.1507 56.1435 16.0159V26.0721H51.6047ZM86.9131 12.4099C84.9235 12.4099 83.4934 13.9176 83.338 16.0003H90.4104C90.3172 13.8709 88.9338 12.4099 86.9131 12.4099ZM90.4726 20.974H94.6383C94.141 24.238 91.1566 26.4295 87.0374 26.4295C81.908 26.4295 78.8303 23.15 78.8303 17.8188C78.8303 12.5032 81.9391 9.05264 86.8665 9.05264C91.7162 9.05264 94.7783 12.3322 94.7783 17.3991V18.7825H83.2913V19.0622C83.2913 21.4403 84.7992 23.0723 87.1152 23.0723C88.7784 23.0723 90.053 22.2485 90.4726 20.974ZM97.4756 26.0721V9.41013H101.859V12.3788H101.952C102.839 10.3116 104.595 9.09927 107.16 9.09927C110.859 9.09927 112.942 11.4307 112.942 15.3319V26.0721H108.403V16.2801C108.403 14.1041 107.377 12.8606 105.34 12.8606C103.305 12.8606 102.015 14.3528 102.015 16.5132V26.0721H97.4756ZM117.38 5.57104H121.919V9.41013H124.997V12.8296H121.919V20.8031C121.919 22.0776 122.541 22.6838 123.877 22.6838C124.282 22.6838 124.701 22.6527 124.981 22.6061V25.9477C124.515 26.0565 123.738 26.1342 122.82 26.1342C118.903 26.1342 117.38 24.8287 117.38 21.5801V12.8296H115.033V9.41013H117.38V5.57104ZM135.232 26.4295C130.196 26.4295 126.979 23.1966 126.979 17.7256C126.979 12.3322 130.243 9.05264 135.232 9.05264C140.222 9.05264 143.487 12.3166 143.487 17.7256C143.487 23.2122 140.269 26.4295 135.232 26.4295ZM135.232 22.9635C137.455 22.9635 138.87 21.0828 138.87 17.7411C138.87 14.4305 137.44 12.5187 135.232 12.5187C133.026 12.5187 131.58 14.4305 131.58 17.7411C131.58 21.0828 132.995 22.9635 135.232 22.9635Z" fill="black"/>
</svg>
